<?xml version="1.0" standalone="no"?><!DOCTYPE svg PUBLIC "-//W3C//DTD SVG 1.1//EN" "http://www.w3.org/Graphics/SVG/1.1/DTD/svg11.dtd"><svg t="1582612832188" class="icon" viewBox="0 0 1024 1024" version="1.1" xmlns="http://www.w3.org/2000/svg" p-id="5126" xmlns:xlink="http://www.w3.org/1999/xlink" width="200" height="200"><defs><style type="text/css"></style></defs><path d="M960 448H512v192h32v320a64 64 0 1 1-128 0V640h32v-192a64 64 0 0 1 64-64h448V192h-64V128h64a64 64 0 0 1 64 64v192a64 64 0 0 1-64 64zM64 192H32a32 32 0 1 1 0-64h32V0h832v320H64V192z m64 64h704V64H128v192z" p-id="5127"></path></svg>