<?xml version="1.0" standalone="no"?><!DOCTYPE svg PUBLIC "-//W3C//DTD SVG 1.1//EN" "http://www.w3.org/Graphics/SVG/1.1/DTD/svg11.dtd"><svg t="1582361132486" class="icon" viewBox="0 0 1024 1024" version="1.1" xmlns="http://www.w3.org/2000/svg" p-id="4383" xmlns:xlink="http://www.w3.org/1999/xlink" width="200" height="200"><defs><style type="text/css"></style></defs><path d="M597.333333 85.333333v85.333334h341.333334v682.666666h-341.333334v85.333334h426.666667V85.333333H597.333333z" fill="#217346" p-id="4384"></path><path d="M597.333333 256h85.333334v85.333333h-85.333334zM725.333333 256h128v85.333333h-128zM597.333333 384h85.333334v85.333333h-85.333334zM725.333333 384h128v85.333333h-128zM597.333333 512h85.333334v85.333333h-85.333334zM725.333333 512h128v85.333333h-128zM597.333333 640h85.333334v85.333333h-85.333334zM725.333333 640h128v85.333333h-128z" fill="#217346" p-id="4385"></path><path d="M597.333333 1024L0 884.053333V139.946667L597.333333 0z m-234.666666-298.666667l98.133333 5.973334-113.493333-214.613334 110.506666-213.333333-92.586666 5.546667-56.32 126.72a64 64 0 0 0-6.4 17.92c0 5.973333-2.986667 11.946667-4.693334 17.92H298.666667a117.333333 117.333333 0 0 0-4.693334-17.493334 151.04 151.04 0 0 0-5.973333-16.64L237.653333 318.293333l-89.6 4.693334 95.573334 195.413333-104.106667 194.986667 87.466667 4.693333 58.026666-128 2.133334-5.546667 2.56-8.533333a82.773333 82.773333 0 0 0 0-8.533333 19.2 19.2 0 0 0 0-5.546667c0 2.986667 0 5.973333 2.133333 8.533333a60.586667 60.586667 0 0 0 0 8.533334 30.72 30.72 0 0 0 3.84 10.24z" fill="#217346" p-id="4386"></path></svg>