<?xml version="1.0" standalone="no"?><!DOCTYPE svg PUBLIC "-//W3C//DTD SVG 1.1//EN" "http://www.w3.org/Graphics/SVG/1.1/DTD/svg11.dtd"><svg t="1582612722570" class="icon" viewBox="0 0 1024 1024" version="1.1" xmlns="http://www.w3.org/2000/svg" p-id="2394" xmlns:xlink="http://www.w3.org/1999/xlink" width="200" height="200"><defs><style type="text/css"></style></defs><path d="M1024 418.688l0 387.584c0 0 0 153.664-137.856 153.664-137.728 0-275.776 0-275.776 0L413.568 959.936c0 0-137.856 0-275.776 0C0 960 0 806.4 0 806.4L0 418.688l288.832 0 446.4 0L1024 418.688zM988.096 525.632c0-25.856-20.736-46.976-46.208-46.976-25.536 0-46.272 21.12-46.272 46.976 0 25.984 20.672 46.976 46.272 46.976C967.36 572.608 988.096 551.616 988.096 525.632zM942.016 652.608c0-20.288-16.256-36.736-36.096-36.736L118.208 615.872c-9.984 0-19.008 4.096-25.536 10.752-6.528 6.656-10.624 15.872-10.624 25.984 0 20.224 16.192 36.736 36.16 36.736l787.648 0C925.76 689.344 942.016 672.896 942.016 652.608zM879.616 899.904l-65.664-173.76L512 726.144 210.048 726.144l-65.664 173.76 183.808 0 367.552 0L879.616 899.904z" p-id="2395"></path><path d="M922.368 525.696a0.307 0.312 0 1 0 39.296 0 0.307 0.312 0 1 0-39.296 0Z" p-id="2396"></path><path d="M884.48 64l-46.016 309.504L516.864 373.504 482.816 373.504 161.216 373.504 115.264 64l213.888 0 341.312 0L884.48 64zM172.928 218.688l99.904-126.08-124.8 0L172.928 218.688z" p-id="2397"></path></svg>